# xmcd
#
# Track frame offsets: 
#        150
#        20583
#        40765
#        59145
#        88073
#        103060
#        140348
#        159855
#        177970
#        194883
#        211410
#
# Disc length: 3226 seconds
#
# Revision: 5
# Processed by: cddbd v1.5PL3 Copyright (c) Steve Scherf et al.
# Submitted via: ExactAudioCopy v0.95a5
#
DISCID=9f0c980b
DTITLE=Dot Allison - Afterglow
DYEAR=1999
DGENRE=
TTITLE0=Colour Me
TTITLE1=Tomorrow Never Comes
TTITLE2=Close Your Eyes
TTITLE3=Message Personnel
TTITLE4=I Wanna Feel The Chill
TTITLE5=Morning Sun
TTITLE6=Did I Imagine You?
TTITLE7=Mo' Pop
TTITLE8=Alpha Female
TTITLE9=In Winter Still
TTITLE10=Message Personnel (Arab Strap Remix)
EXTD=
EXTT0=
EXTT1=
EXTT2=
EXTT3=
EXTT4=
EXTT5=
EXTT6=
EXTT7=
EXTT8=
EXTT9=
EXTT10=
PLAYORDER=
